<mxfile host="app.diagrams.net" modified="2020-11-07T16:35:27.725Z" agent="5.0 (Macintosh; Intel Mac OS X 10_15_7) AppleWebKit/537.36 (KHTML, like Gecko) Chrome/85.0.4183.121 Safari/537.36" etag="IKgQHqcBq7VLEZ1bU9Tl" version="13.9.2" type="github" pages="2">
  <diagram id="eQxaF1Dag95yDBxEAqoC" name="Page-1">
    <mxGraphModel dx="1876" dy="1645" grid="1" gridSize="10" guides="1" tooltips="1" connect="1" arrows="1" fold="1" page="1" pageScale="1" pageWidth="850" pageHeight="1100" math="0" shadow="0">
      <root>
        <mxCell id="0" />
        <mxCell id="1" parent="0" />
        <mxCell id="_tfm7mUWPeJqsvMimvFv-2" value="" style="rounded=0;whiteSpace=wrap;html=1;" parent="1" vertex="1">
          <mxGeometry x="-560" y="-860" width="420" height="280" as="geometry" />
        </mxCell>
        <mxCell id="_tfm7mUWPeJqsvMimvFv-13" style="edgeStyle=orthogonalEdgeStyle;rounded=0;orthogonalLoop=1;jettySize=auto;html=1;exitX=1;exitY=0.5;exitDx=0;exitDy=0;entryX=0;entryY=0.5;entryDx=0;entryDy=0;" parent="1" source="_tfm7mUWPeJqsvMimvFv-4" target="_tfm7mUWPeJqsvMimvFv-12" edge="1">
          <mxGeometry relative="1" as="geometry" />
        </mxCell>
        <mxCell id="_tfm7mUWPeJqsvMimvFv-4" value="Welcome to Hull Gang Christmas Quiz!" style="rounded=1;whiteSpace=wrap;html=1;" parent="1" vertex="1">
          <mxGeometry x="-500" y="-810" width="300" height="60" as="geometry" />
        </mxCell>
        <mxCell id="_tfm7mUWPeJqsvMimvFv-5" value="" style="rounded=1;whiteSpace=wrap;html=1;" parent="1" vertex="1">
          <mxGeometry x="-400" y="-735" width="200" height="30" as="geometry" />
        </mxCell>
        <mxCell id="_tfm7mUWPeJqsvMimvFv-6" value="" style="rounded=1;whiteSpace=wrap;html=1;" parent="1" vertex="1">
          <mxGeometry x="-400" y="-680" width="200" height="30" as="geometry" />
        </mxCell>
        <mxCell id="_tfm7mUWPeJqsvMimvFv-8" value="Team name:" style="rounded=1;whiteSpace=wrap;html=1;" parent="1" vertex="1">
          <mxGeometry x="-500" y="-735" width="90" height="35" as="geometry" />
        </mxCell>
        <mxCell id="_tfm7mUWPeJqsvMimvFv-9" value="GameId:" style="rounded=1;whiteSpace=wrap;html=1;" parent="1" vertex="1">
          <mxGeometry x="-500" y="-680" width="90" height="30" as="geometry" />
        </mxCell>
        <mxCell id="_tfm7mUWPeJqsvMimvFv-23" style="edgeStyle=orthogonalEdgeStyle;rounded=0;orthogonalLoop=1;jettySize=auto;html=1;exitX=0.5;exitY=1;exitDx=0;exitDy=0;entryX=0.5;entryY=0;entryDx=0;entryDy=0;" parent="1" source="_tfm7mUWPeJqsvMimvFv-10" target="_tfm7mUWPeJqsvMimvFv-16" edge="1">
          <mxGeometry relative="1" as="geometry" />
        </mxCell>
        <mxCell id="_tfm7mUWPeJqsvMimvFv-10" value="Go!" style="rounded=1;whiteSpace=wrap;html=1;" parent="1" vertex="1">
          <mxGeometry x="-395" y="-630" width="90" height="30" as="geometry" />
        </mxCell>
        <mxCell id="_tfm7mUWPeJqsvMimvFv-11" value="&amp;lt;Optional Error Code&amp;gt;" style="rounded=1;whiteSpace=wrap;html=1;" parent="1" vertex="1">
          <mxGeometry x="-560" y="-860" width="420" height="40" as="geometry" />
        </mxCell>
        <mxCell id="_tfm7mUWPeJqsvMimvFv-12" value="Static Text/PNG graphic" style="text;html=1;strokeColor=none;fillColor=none;align=center;verticalAlign=middle;whiteSpace=wrap;rounded=0;" parent="1" vertex="1">
          <mxGeometry x="-120" y="-800" width="150" height="40" as="geometry" />
        </mxCell>
        <mxCell id="_tfm7mUWPeJqsvMimvFv-18" style="edgeStyle=orthogonalEdgeStyle;rounded=0;orthogonalLoop=1;jettySize=auto;html=1;exitX=1;exitY=0.5;exitDx=0;exitDy=0;" parent="1" source="_tfm7mUWPeJqsvMimvFv-16" target="_tfm7mUWPeJqsvMimvFv-17" edge="1">
          <mxGeometry relative="1" as="geometry" />
        </mxCell>
        <mxCell id="_tfm7mUWPeJqsvMimvFv-22" value="Yes" style="edgeLabel;html=1;align=center;verticalAlign=middle;resizable=0;points=[];" parent="_tfm7mUWPeJqsvMimvFv-18" vertex="1" connectable="0">
          <mxGeometry x="-0.3382" y="5" relative="1" as="geometry">
            <mxPoint as="offset" />
          </mxGeometry>
        </mxCell>
        <mxCell id="_tfm7mUWPeJqsvMimvFv-24" style="edgeStyle=orthogonalEdgeStyle;rounded=0;orthogonalLoop=1;jettySize=auto;html=1;exitX=0.5;exitY=1;exitDx=0;exitDy=0;entryX=0;entryY=0.5;entryDx=0;entryDy=0;" parent="1" source="_tfm7mUWPeJqsvMimvFv-26" target="_tfm7mUWPeJqsvMimvFv-11" edge="1">
          <mxGeometry relative="1" as="geometry">
            <Array as="points">
              <mxPoint x="-660" y="-840" />
            </Array>
          </mxGeometry>
        </mxCell>
        <mxCell id="_tfm7mUWPeJqsvMimvFv-25" value="No" style="edgeLabel;html=1;align=center;verticalAlign=middle;resizable=0;points=[];" parent="_tfm7mUWPeJqsvMimvFv-24" vertex="1" connectable="0">
          <mxGeometry x="-0.6926" y="-3" relative="1" as="geometry">
            <mxPoint as="offset" />
          </mxGeometry>
        </mxCell>
        <mxCell id="_tfm7mUWPeJqsvMimvFv-16" value="GameId exists?" style="rhombus;whiteSpace=wrap;html=1;" parent="1" vertex="1">
          <mxGeometry x="-410" y="-530" width="120" height="80" as="geometry" />
        </mxCell>
        <mxCell id="_tfm7mUWPeJqsvMimvFv-20" style="edgeStyle=orthogonalEdgeStyle;rounded=0;orthogonalLoop=1;jettySize=auto;html=1;exitX=1;exitY=0.5;exitDx=0;exitDy=0;" parent="1" source="_tfm7mUWPeJqsvMimvFv-17" target="_tfm7mUWPeJqsvMimvFv-19" edge="1">
          <mxGeometry relative="1" as="geometry" />
        </mxCell>
        <mxCell id="_tfm7mUWPeJqsvMimvFv-21" value="No" style="edgeLabel;html=1;align=center;verticalAlign=middle;resizable=0;points=[];" parent="_tfm7mUWPeJqsvMimvFv-20" vertex="1" connectable="0">
          <mxGeometry x="-0.0529" y="-1" relative="1" as="geometry">
            <mxPoint as="offset" />
          </mxGeometry>
        </mxCell>
        <mxCell id="_tfm7mUWPeJqsvMimvFv-29" style="edgeStyle=orthogonalEdgeStyle;rounded=0;orthogonalLoop=1;jettySize=auto;html=1;exitX=0.5;exitY=1;exitDx=0;exitDy=0;entryX=0.576;entryY=1.032;entryDx=0;entryDy=0;entryPerimeter=0;" parent="1" source="_tfm7mUWPeJqsvMimvFv-17" target="_tfm7mUWPeJqsvMimvFv-26" edge="1">
          <mxGeometry relative="1" as="geometry">
            <Array as="points">
              <mxPoint x="-180" y="-340" />
              <mxPoint x="-661" y="-340" />
            </Array>
          </mxGeometry>
        </mxCell>
        <mxCell id="_tfm7mUWPeJqsvMimvFv-30" value="Yes" style="edgeLabel;html=1;align=center;verticalAlign=middle;resizable=0;points=[];" parent="_tfm7mUWPeJqsvMimvFv-29" vertex="1" connectable="0">
          <mxGeometry x="-0.9194" y="4" relative="1" as="geometry">
            <mxPoint x="-4.02" y="-19.12" as="offset" />
          </mxGeometry>
        </mxCell>
        <mxCell id="_tfm7mUWPeJqsvMimvFv-17" value="Team name exists for given ID?" style="rhombus;whiteSpace=wrap;html=1;" parent="1" vertex="1">
          <mxGeometry x="-250" y="-535" width="140" height="90" as="geometry" />
        </mxCell>
        <mxCell id="_tfm7mUWPeJqsvMimvFv-19" value="Get request to /&amp;lt;gameID&amp;gt; URL" style="rounded=0;whiteSpace=wrap;html=1;" parent="1" vertex="1">
          <mxGeometry x="-10" y="-520" width="120" height="60" as="geometry" />
        </mxCell>
        <mxCell id="_tfm7mUWPeJqsvMimvFv-26" value="Populate banner with correct error message" style="rounded=0;whiteSpace=wrap;html=1;" parent="1" vertex="1">
          <mxGeometry x="-730" y="-660" width="120" height="60" as="geometry" />
        </mxCell>
        <mxCell id="_tfm7mUWPeJqsvMimvFv-27" style="edgeStyle=orthogonalEdgeStyle;rounded=0;orthogonalLoop=1;jettySize=auto;html=1;exitX=0.5;exitY=1;exitDx=0;exitDy=0;" parent="1" source="_tfm7mUWPeJqsvMimvFv-16" target="_tfm7mUWPeJqsvMimvFv-26" edge="1">
          <mxGeometry relative="1" as="geometry">
            <mxPoint x="-350" y="-450" as="sourcePoint" />
            <mxPoint x="-560" y="-840" as="targetPoint" />
            <Array as="points">
              <mxPoint x="-350" y="-430" />
              <mxPoint x="-660" y="-430" />
            </Array>
          </mxGeometry>
        </mxCell>
        <mxCell id="_tfm7mUWPeJqsvMimvFv-28" value="No" style="edgeLabel;html=1;align=center;verticalAlign=middle;resizable=0;points=[];" parent="_tfm7mUWPeJqsvMimvFv-27" vertex="1" connectable="0">
          <mxGeometry x="-0.6926" y="-3" relative="1" as="geometry">
            <mxPoint as="offset" />
          </mxGeometry>
        </mxCell>
        <mxCell id="oAEYFPkM7GgEicWU4UCr-69" value="" style="rounded=0;whiteSpace=wrap;html=1;sketch=0;" vertex="1" parent="1">
          <mxGeometry x="590" y="-860" width="420" height="280" as="geometry" />
        </mxCell>
        <mxCell id="oAEYFPkM7GgEicWU4UCr-73" value="" style="rounded=0;whiteSpace=wrap;html=1;sketch=0;" vertex="1" parent="1">
          <mxGeometry x="1060" y="-860" width="420" height="280" as="geometry" />
        </mxCell>
        <mxCell id="oAEYFPkM7GgEicWU4UCr-76" value="Question" style="rounded=1;whiteSpace=wrap;html=1;sketch=0;" vertex="1" parent="1">
          <mxGeometry x="610" y="-770" width="180" height="60" as="geometry" />
        </mxCell>
        <mxCell id="oAEYFPkM7GgEicWU4UCr-106" value="" style="edgeStyle=orthogonalEdgeStyle;curved=0;rounded=1;sketch=0;orthogonalLoop=1;jettySize=auto;html=1;entryX=0.5;entryY=0;entryDx=0;entryDy=0;" edge="1" parent="1" source="oAEYFPkM7GgEicWU4UCr-77" target="oAEYFPkM7GgEicWU4UCr-107">
          <mxGeometry relative="1" as="geometry">
            <mxPoint x="700" y="-560" as="targetPoint" />
          </mxGeometry>
        </mxCell>
        <mxCell id="oAEYFPkM7GgEicWU4UCr-77" value="Answer Text Box" style="rounded=1;whiteSpace=wrap;html=1;sketch=0;" vertex="1" parent="1">
          <mxGeometry x="610" y="-690" width="180" height="30" as="geometry" />
        </mxCell>
        <mxCell id="oAEYFPkM7GgEicWU4UCr-79" value="&lt;span&gt;Hull Gang Christmas Quiz&lt;/span&gt;" style="rounded=0;whiteSpace=wrap;html=1;sketch=0;" vertex="1" parent="1">
          <mxGeometry x="610" y="-850" width="180" height="50" as="geometry" />
        </mxCell>
        <mxCell id="oAEYFPkM7GgEicWU4UCr-141" value="" style="edgeStyle=orthogonalEdgeStyle;curved=0;rounded=1;sketch=0;orthogonalLoop=1;jettySize=auto;html=1;" edge="1" parent="1" source="oAEYFPkM7GgEicWU4UCr-80" target="oAEYFPkM7GgEicWU4UCr-140">
          <mxGeometry relative="1" as="geometry">
            <mxPoint x="1030" y="-860" as="targetPoint" />
            <Array as="points">
              <mxPoint x="1140" y="-910" />
            </Array>
          </mxGeometry>
        </mxCell>
        <mxCell id="oAEYFPkM7GgEicWU4UCr-80" value="Display Question" style="rounded=0;whiteSpace=wrap;html=1;sketch=0;" vertex="1" parent="1">
          <mxGeometry x="1080" y="-830" width="120" height="30" as="geometry" />
        </mxCell>
        <mxCell id="oAEYFPkM7GgEicWU4UCr-81" value="Answer Submitted by team 1" style="rounded=0;whiteSpace=wrap;html=1;sketch=0;" vertex="1" parent="1">
          <mxGeometry x="1080" y="-780" width="170" height="30" as="geometry" />
        </mxCell>
        <mxCell id="oAEYFPkM7GgEicWU4UCr-82" value="Answer Submitted by team 2" style="rounded=0;whiteSpace=wrap;html=1;sketch=0;" vertex="1" parent="1">
          <mxGeometry x="1080" y="-740" width="170" height="30" as="geometry" />
        </mxCell>
        <mxCell id="oAEYFPkM7GgEicWU4UCr-83" value="Answer Submitted by team 3&lt;span style=&quot;color: rgba(0 , 0 , 0 , 0) ; font-family: monospace ; font-size: 0px&quot;&gt;%3CmxGraphModel%3E%3Croot%3E%3CmxCell%20id%3D%220%22%2F%3E%3CmxCell%20id%3D%221%22%20parent%3D%220%22%2F%3E%3CmxCell%20id%3D%222%22%20value%3D%22Answer%20Submitted%20by%20team%201%22%20style%3D%22rounded%3D0%3BwhiteSpace%3Dwrap%3Bhtml%3D1%3Bsketch%3D0%3B%22%20vertex%3D%221%22%20parent%3D%221%22%3E%3CmxGeometry%20x%3D%221140%22%20y%3D%22110%22%20width%3D%22170%22%20height%3D%2230%22%20as%3D%22geometry%22%2F%3E%3C%2FmxCell%3E%3C%2Froot%3E%3C%2FmxGraphModel%3E&lt;/span&gt;&lt;span style=&quot;color: rgba(0 , 0 , 0 , 0) ; font-family: monospace ; font-size: 0px&quot;&gt;%3CmxGraphModel%3E%3Croot%3E%3CmxCell%20id%3D%220%22%2F%3E%3CmxCell%20id%3D%221%22%20parent%3D%220%22%2F%3E%3CmxCell%20id%3D%222%22%20value%3D%22Answer%20Submitted%20by%20team%201%22%20style%3D%22rounded%3D0%3BwhiteSpace%3Dwrap%3Bhtml%3D1%3Bsketch%3D0%3B%22%20vertex%3D%221%22%20parent%3D%221%22%3E%3CmxGeometry%20x%3D%221140%22%20y%3D%22110%22%20width%3D%22170%22%20height%3D%2230%22%20as%3D%22geometry%22%2F%3E%3C%2FmxCell%3E%3C%2Froot%3E%3C%2FmxGraphModel%3E&lt;/span&gt;" style="rounded=0;whiteSpace=wrap;html=1;sketch=0;" vertex="1" parent="1">
          <mxGeometry x="1080" y="-700" width="170" height="30" as="geometry" />
        </mxCell>
        <mxCell id="oAEYFPkM7GgEicWU4UCr-84" value="Answer Submitted by team 4" style="rounded=0;whiteSpace=wrap;html=1;sketch=0;" vertex="1" parent="1">
          <mxGeometry x="1080" y="-660" width="170" height="30" as="geometry" />
        </mxCell>
        <mxCell id="oAEYFPkM7GgEicWU4UCr-85" value="" style="whiteSpace=wrap;html=1;aspect=fixed;rounded=0;sketch=0;" vertex="1" parent="1">
          <mxGeometry x="1260" y="-780" width="30" height="30" as="geometry" />
        </mxCell>
        <mxCell id="oAEYFPkM7GgEicWU4UCr-86" value="" style="whiteSpace=wrap;html=1;aspect=fixed;rounded=0;sketch=0;" vertex="1" parent="1">
          <mxGeometry x="1300" y="-780" width="30" height="30" as="geometry" />
        </mxCell>
        <mxCell id="oAEYFPkM7GgEicWU4UCr-87" value="" style="whiteSpace=wrap;html=1;aspect=fixed;rounded=0;sketch=0;" vertex="1" parent="1">
          <mxGeometry x="1260" y="-740" width="30" height="30" as="geometry" />
        </mxCell>
        <mxCell id="oAEYFPkM7GgEicWU4UCr-88" value="" style="whiteSpace=wrap;html=1;aspect=fixed;rounded=0;sketch=0;" vertex="1" parent="1">
          <mxGeometry x="1300" y="-740" width="30" height="30" as="geometry" />
        </mxCell>
        <mxCell id="oAEYFPkM7GgEicWU4UCr-89" value="" style="whiteSpace=wrap;html=1;aspect=fixed;rounded=0;sketch=0;" vertex="1" parent="1">
          <mxGeometry x="1300" y="-700" width="30" height="30" as="geometry" />
        </mxCell>
        <mxCell id="oAEYFPkM7GgEicWU4UCr-90" value="" style="whiteSpace=wrap;html=1;aspect=fixed;rounded=0;sketch=0;" vertex="1" parent="1">
          <mxGeometry x="1260" y="-700" width="30" height="30" as="geometry" />
        </mxCell>
        <mxCell id="oAEYFPkM7GgEicWU4UCr-91" value="" style="whiteSpace=wrap;html=1;aspect=fixed;rounded=0;sketch=0;" vertex="1" parent="1">
          <mxGeometry x="1300" y="-660" width="30" height="30" as="geometry" />
        </mxCell>
        <mxCell id="oAEYFPkM7GgEicWU4UCr-92" value="" style="whiteSpace=wrap;html=1;aspect=fixed;rounded=0;sketch=0;" vertex="1" parent="1">
          <mxGeometry x="1260" y="-660" width="30" height="30" as="geometry" />
        </mxCell>
        <mxCell id="oAEYFPkM7GgEicWU4UCr-95" value="" style="shape=image;html=1;verticalAlign=top;verticalLabelPosition=bottom;labelBackgroundColor=#ffffff;imageAspect=0;aspect=fixed;image=https://cdn3.iconfinder.com/data/icons/flat-actions-icons-9/512/Tick_Mark-128.png;rounded=0;sketch=0;" vertex="1" parent="1">
          <mxGeometry x="1266" y="-734" width="18" height="18" as="geometry" />
        </mxCell>
        <mxCell id="oAEYFPkM7GgEicWU4UCr-96" value="" style="shape=image;html=1;verticalAlign=top;verticalLabelPosition=bottom;labelBackgroundColor=#ffffff;imageAspect=0;aspect=fixed;image=https://cdn3.iconfinder.com/data/icons/flat-actions-icons-9/512/Tick_Mark-128.png;rounded=0;sketch=0;" vertex="1" parent="1">
          <mxGeometry x="1266" y="-694" width="18" height="18" as="geometry" />
        </mxCell>
        <mxCell id="oAEYFPkM7GgEicWU4UCr-97" value="" style="shape=image;html=1;verticalAlign=top;verticalLabelPosition=bottom;labelBackgroundColor=#ffffff;imageAspect=0;aspect=fixed;image=https://cdn3.iconfinder.com/data/icons/flat-actions-icons-9/512/Tick_Mark-128.png;rounded=0;sketch=0;" vertex="1" parent="1">
          <mxGeometry x="1266" y="-654" width="18" height="18" as="geometry" />
        </mxCell>
        <mxCell id="oAEYFPkM7GgEicWU4UCr-98" value="" style="shape=image;html=1;verticalAlign=top;verticalLabelPosition=bottom;labelBackgroundColor=#ffffff;imageAspect=0;aspect=fixed;image=https://cdn4.iconfinder.com/data/icons/icocentre-free-icons/114/f-cross_256-128.png;rounded=0;sketch=0;" vertex="1" parent="1">
          <mxGeometry x="1306" y="-774" width="18" height="18" as="geometry" />
        </mxCell>
        <mxCell id="oAEYFPkM7GgEicWU4UCr-99" value="" style="shape=image;html=1;verticalAlign=top;verticalLabelPosition=bottom;labelBackgroundColor=#ffffff;imageAspect=0;aspect=fixed;image=https://cdn3.iconfinder.com/data/icons/flat-actions-icons-9/512/Tick_Mark-128.png;rounded=0;sketch=0;" vertex="1" parent="1">
          <mxGeometry x="1266" y="-774" width="18" height="18" as="geometry" />
        </mxCell>
        <mxCell id="oAEYFPkM7GgEicWU4UCr-100" value="" style="shape=image;html=1;verticalAlign=top;verticalLabelPosition=bottom;labelBackgroundColor=#ffffff;imageAspect=0;aspect=fixed;image=https://cdn4.iconfinder.com/data/icons/icocentre-free-icons/114/f-cross_256-128.png;rounded=0;sketch=0;" vertex="1" parent="1">
          <mxGeometry x="1306" y="-734" width="18" height="18" as="geometry" />
        </mxCell>
        <mxCell id="oAEYFPkM7GgEicWU4UCr-101" value="" style="shape=image;html=1;verticalAlign=top;verticalLabelPosition=bottom;labelBackgroundColor=#ffffff;imageAspect=0;aspect=fixed;image=https://cdn4.iconfinder.com/data/icons/icocentre-free-icons/114/f-cross_256-128.png;rounded=0;sketch=0;" vertex="1" parent="1">
          <mxGeometry x="1306" y="-694" width="18" height="18" as="geometry" />
        </mxCell>
        <mxCell id="oAEYFPkM7GgEicWU4UCr-102" value="" style="shape=image;html=1;verticalAlign=top;verticalLabelPosition=bottom;labelBackgroundColor=#ffffff;imageAspect=0;aspect=fixed;image=https://cdn4.iconfinder.com/data/icons/icocentre-free-icons/114/f-cross_256-128.png;rounded=0;sketch=0;" vertex="1" parent="1">
          <mxGeometry x="1306" y="-654" width="18" height="18" as="geometry" />
        </mxCell>
        <mxCell id="oAEYFPkM7GgEicWU4UCr-109" value="" style="edgeStyle=orthogonalEdgeStyle;curved=0;rounded=1;sketch=0;orthogonalLoop=1;jettySize=auto;html=1;entryX=0;entryY=0.5;entryDx=0;entryDy=0;" edge="1" parent="1" source="oAEYFPkM7GgEicWU4UCr-107" target="oAEYFPkM7GgEicWU4UCr-83">
          <mxGeometry relative="1" as="geometry">
            <mxPoint x="870" y="-500" as="targetPoint" />
            <Array as="points">
              <mxPoint x="1020" y="-500" />
              <mxPoint x="1020" y="-685" />
            </Array>
          </mxGeometry>
        </mxCell>
        <mxCell id="oAEYFPkM7GgEicWU4UCr-113" value="" style="edgeStyle=orthogonalEdgeStyle;curved=0;rounded=1;sketch=0;orthogonalLoop=1;jettySize=auto;html=1;entryX=0.5;entryY=0;entryDx=0;entryDy=0;" edge="1" parent="1" target="oAEYFPkM7GgEicWU4UCr-112">
          <mxGeometry relative="1" as="geometry">
            <mxPoint x="700" y="-570" as="sourcePoint" />
          </mxGeometry>
        </mxCell>
        <mxCell id="oAEYFPkM7GgEicWU4UCr-107" value="Send answer to master view" style="rounded=0;whiteSpace=wrap;html=1;fontFamily=Helvetica;fontSize=12;fontColor=#000000;align=center;strokeColor=#000000;fillColor=#ffffff;sketch=0;" vertex="1" parent="1">
          <mxGeometry x="625" y="-540" width="150" height="80" as="geometry" />
        </mxCell>
        <mxCell id="oAEYFPkM7GgEicWU4UCr-112" value="Freeze text box" style="rounded=0;whiteSpace=wrap;html=1;fontFamily=Helvetica;fontSize=12;fontColor=#000000;align=center;strokeColor=#000000;fillColor=#ffffff;sketch=0;" vertex="1" parent="1">
          <mxGeometry x="500" y="-535" width="100" height="70" as="geometry" />
        </mxCell>
        <mxCell id="oAEYFPkM7GgEicWU4UCr-118" value="" style="edgeStyle=orthogonalEdgeStyle;curved=0;rounded=1;sketch=0;orthogonalLoop=1;jettySize=auto;html=1;entryX=0;entryY=0.5;entryDx=0;entryDy=0;exitX=0.1;exitY=0.5;exitDx=0;exitDy=0;exitPerimeter=0;" edge="1" parent="1" source="oAEYFPkM7GgEicWU4UCr-114" target="oAEYFPkM7GgEicWU4UCr-120">
          <mxGeometry relative="1" as="geometry">
            <mxPoint x="1410" y="-705" as="sourcePoint" />
            <mxPoint x="1390" y="-705" as="targetPoint" />
          </mxGeometry>
        </mxCell>
        <mxCell id="oAEYFPkM7GgEicWU4UCr-114" value="" style="shape=curlyBracket;whiteSpace=wrap;html=1;rounded=1;sketch=0;size=0;rotation=-180;" vertex="1" parent="1">
          <mxGeometry x="1380" y="-780" width="10" height="150" as="geometry" />
        </mxCell>
        <mxCell id="oAEYFPkM7GgEicWU4UCr-124" value="" style="edgeStyle=orthogonalEdgeStyle;curved=0;rounded=1;sketch=0;orthogonalLoop=1;jettySize=auto;html=1;" edge="1" parent="1" source="oAEYFPkM7GgEicWU4UCr-120" target="oAEYFPkM7GgEicWU4UCr-126">
          <mxGeometry relative="1" as="geometry">
            <mxPoint x="1560" y="-810" as="targetPoint" />
            <Array as="points">
              <mxPoint x="1560" y="-770" />
              <mxPoint x="1560" y="-770" />
            </Array>
          </mxGeometry>
        </mxCell>
        <mxCell id="oAEYFPkM7GgEicWU4UCr-125" value="No" style="edgeLabel;html=1;align=center;verticalAlign=middle;resizable=0;points=[];" vertex="1" connectable="0" parent="oAEYFPkM7GgEicWU4UCr-124">
          <mxGeometry x="-0.1257" y="-7" relative="1" as="geometry">
            <mxPoint x="-7" y="-0.13999999999999968" as="offset" />
          </mxGeometry>
        </mxCell>
        <mxCell id="oAEYFPkM7GgEicWU4UCr-128" value="" style="edgeStyle=orthogonalEdgeStyle;curved=0;rounded=1;sketch=0;orthogonalLoop=1;jettySize=auto;html=1;entryX=1;entryY=0.5;entryDx=0;entryDy=0;" edge="1" parent="1" source="oAEYFPkM7GgEicWU4UCr-120" target="oAEYFPkM7GgEicWU4UCr-131">
          <mxGeometry relative="1" as="geometry">
            <mxPoint x="1560" y="-460" as="targetPoint" />
            <Array as="points">
              <mxPoint x="1560" y="-520" />
            </Array>
          </mxGeometry>
        </mxCell>
        <mxCell id="oAEYFPkM7GgEicWU4UCr-130" value="Yes" style="edgeLabel;html=1;align=center;verticalAlign=middle;resizable=0;points=[];" vertex="1" connectable="0" parent="oAEYFPkM7GgEicWU4UCr-128">
          <mxGeometry x="-0.8391" y="-2" relative="1" as="geometry">
            <mxPoint as="offset" />
          </mxGeometry>
        </mxCell>
        <mxCell id="oAEYFPkM7GgEicWU4UCr-120" value="Have all answers been marked?" style="rhombus;whiteSpace=wrap;html=1;fontFamily=Helvetica;fontSize=12;fontColor=#000000;align=center;strokeColor=#000000;fillColor=#ffffff;sketch=0;" vertex="1" parent="1">
          <mxGeometry x="1500" y="-735" width="120" height="60" as="geometry" />
        </mxCell>
        <mxCell id="oAEYFPkM7GgEicWU4UCr-122" value="Answers of others" style="rounded=0;whiteSpace=wrap;html=1;sketch=0;" vertex="1" parent="1">
          <mxGeometry x="820" y="-840" width="170" height="180" as="geometry" />
        </mxCell>
        <mxCell id="oAEYFPkM7GgEicWU4UCr-126" value="Wait for more answers" style="rounded=0;whiteSpace=wrap;html=1;fontFamily=Helvetica;fontSize=12;fontColor=#000000;align=center;strokeColor=#000000;fillColor=#ffffff;" vertex="1" parent="1">
          <mxGeometry x="1500" y="-880" width="120" height="50" as="geometry" />
        </mxCell>
        <mxCell id="oAEYFPkM7GgEicWU4UCr-134" value="" style="edgeStyle=orthogonalEdgeStyle;curved=0;rounded=1;sketch=0;orthogonalLoop=1;jettySize=auto;html=1;entryX=0.5;entryY=1;entryDx=0;entryDy=0;" edge="1" parent="1" source="oAEYFPkM7GgEicWU4UCr-131" target="oAEYFPkM7GgEicWU4UCr-132">
          <mxGeometry relative="1" as="geometry">
            <mxPoint x="1124" y="-520" as="targetPoint" />
            <Array as="points">
              <mxPoint x="905" y="-520" />
            </Array>
          </mxGeometry>
        </mxCell>
        <mxCell id="oAEYFPkM7GgEicWU4UCr-131" value="Display all answers and correct answer" style="rounded=0;whiteSpace=wrap;html=1;fontFamily=Helvetica;fontSize=12;fontColor=#000000;align=center;strokeColor=#000000;fillColor=#ffffff;" vertex="1" parent="1">
          <mxGeometry x="1204" y="-550" width="120" height="60" as="geometry" />
        </mxCell>
        <mxCell id="oAEYFPkM7GgEicWU4UCr-132" value="Correct answer: ________" style="rounded=0;whiteSpace=wrap;html=1;sketch=0;" vertex="1" parent="1">
          <mxGeometry x="820" y="-650" width="170" height="40" as="geometry" />
        </mxCell>
        <mxCell id="oAEYFPkM7GgEicWU4UCr-135" value="" style="endArrow=classic;html=1;entryX=1;entryY=0.5;entryDx=0;entryDy=0;" edge="1" parent="1" target="oAEYFPkM7GgEicWU4UCr-122">
          <mxGeometry width="50" height="50" relative="1" as="geometry">
            <mxPoint x="1040" y="-520" as="sourcePoint" />
            <mxPoint x="1090" y="-570" as="targetPoint" />
            <Array as="points">
              <mxPoint x="1040" y="-650" />
              <mxPoint x="1040" y="-750" />
            </Array>
          </mxGeometry>
        </mxCell>
        <mxCell id="oAEYFPkM7GgEicWU4UCr-136" value="1/2" style="whiteSpace=wrap;html=1;aspect=fixed;rounded=0;sketch=0;" vertex="1" parent="1">
          <mxGeometry x="1340" y="-780" width="30" height="30" as="geometry" />
        </mxCell>
        <mxCell id="oAEYFPkM7GgEicWU4UCr-137" value="&lt;span&gt;1/2&lt;/span&gt;" style="whiteSpace=wrap;html=1;aspect=fixed;rounded=0;sketch=0;" vertex="1" parent="1">
          <mxGeometry x="1340" y="-740" width="30" height="30" as="geometry" />
        </mxCell>
        <mxCell id="oAEYFPkM7GgEicWU4UCr-138" value="&lt;span&gt;1/2&lt;/span&gt;" style="whiteSpace=wrap;html=1;aspect=fixed;rounded=0;sketch=0;" vertex="1" parent="1">
          <mxGeometry x="1340" y="-700" width="30" height="30" as="geometry" />
        </mxCell>
        <mxCell id="oAEYFPkM7GgEicWU4UCr-139" value="&lt;span&gt;1/2&lt;/span&gt;" style="whiteSpace=wrap;html=1;aspect=fixed;rounded=0;sketch=0;" vertex="1" parent="1">
          <mxGeometry x="1340" y="-660" width="30" height="30" as="geometry" />
        </mxCell>
        <mxCell id="oAEYFPkM7GgEicWU4UCr-143" value="" style="edgeStyle=orthogonalEdgeStyle;curved=0;rounded=1;sketch=0;orthogonalLoop=1;jettySize=auto;html=1;entryX=0;entryY=0.5;entryDx=0;entryDy=0;" edge="1" parent="1" source="oAEYFPkM7GgEicWU4UCr-140" target="oAEYFPkM7GgEicWU4UCr-76">
          <mxGeometry relative="1" as="geometry">
            <mxPoint x="775" y="-910" as="targetPoint" />
            <Array as="points">
              <mxPoint x="560" y="-910" />
              <mxPoint x="560" y="-740" />
            </Array>
          </mxGeometry>
        </mxCell>
        <mxCell id="oAEYFPkM7GgEicWU4UCr-140" value="Display question on all screens" style="rounded=0;whiteSpace=wrap;html=1;fontFamily=Helvetica;fontSize=12;fontColor=#000000;align=center;strokeColor=#000000;fillColor=#ffffff;sketch=0;" vertex="1" parent="1">
          <mxGeometry x="880" y="-950" width="150" height="80" as="geometry" />
        </mxCell>
      </root>
    </mxGraphModel>
  </diagram>
  <diagram id="-50s4a5Kux9wwQX1YQu7" name="Uni. Challenge Views">
    <mxGraphModel dx="1237" dy="218" grid="1" gridSize="10" guides="1" tooltips="1" connect="1" arrows="1" fold="1" page="1" pageScale="1" pageWidth="827" pageHeight="1169" math="0" shadow="0">
      <root>
        <mxCell id="vERgBJj2h_cucBto-een-0" />
        <mxCell id="vERgBJj2h_cucBto-een-1" parent="vERgBJj2h_cucBto-een-0" />
        <mxCell id="kkYN2aCDqP9aNP-pzhCv-0" value="" style="rounded=0;whiteSpace=wrap;html=1;" vertex="1" parent="vERgBJj2h_cucBto-een-1">
          <mxGeometry x="-740" y="60" width="420" height="280" as="geometry" />
        </mxCell>
        <mxCell id="kkYN2aCDqP9aNP-pzhCv-1" value="&lt;font face=&quot;Times New Roman&quot; size=&quot;1&quot;&gt;&lt;i style=&quot;font-size: 17px&quot;&gt;Hull Gang Christmas Quiz&lt;/i&gt;&lt;/font&gt;" style="text;html=1;strokeColor=none;fillColor=none;align=center;verticalAlign=middle;whiteSpace=wrap;rounded=0;" vertex="1" parent="vERgBJj2h_cucBto-een-1">
          <mxGeometry x="-700" y="80" width="190" height="20" as="geometry" />
        </mxCell>
        <mxCell id="kkYN2aCDqP9aNP-pzhCv-2" value="" style="edgeStyle=orthogonalEdgeStyle;rounded=0;orthogonalLoop=1;jettySize=auto;html=1;fontFamily=Times New Roman;" edge="1" parent="vERgBJj2h_cucBto-een-1" source="kkYN2aCDqP9aNP-pzhCv-3" target="kkYN2aCDqP9aNP-pzhCv-23">
          <mxGeometry relative="1" as="geometry" />
        </mxCell>
        <mxCell id="kkYN2aCDqP9aNP-pzhCv-3" value="Buzzer" style="ellipse;whiteSpace=wrap;html=1;aspect=fixed;" vertex="1" parent="vERgBJj2h_cucBto-een-1">
          <mxGeometry x="-430" y="230" width="90" height="90" as="geometry" />
        </mxCell>
        <mxCell id="kkYN2aCDqP9aNP-pzhCv-4" value="&lt;font face=&quot;Times New Roman&quot;&gt;Team Name&lt;/font&gt;" style="text;html=1;strokeColor=none;fillColor=none;align=left;verticalAlign=middle;whiteSpace=wrap;rounded=0;" vertex="1" parent="vERgBJj2h_cucBto-een-1">
          <mxGeometry x="-700" y="100" width="90" height="20" as="geometry" />
        </mxCell>
        <mxCell id="kkYN2aCDqP9aNP-pzhCv-5" value="University Challenge" style="text;html=1;strokeColor=none;fillColor=none;align=left;verticalAlign=middle;whiteSpace=wrap;rounded=0;fontFamily=Times New Roman;" vertex="1" parent="vERgBJj2h_cucBto-een-1">
          <mxGeometry x="-595" y="100" width="110" height="20" as="geometry" />
        </mxCell>
        <mxCell id="kkYN2aCDqP9aNP-pzhCv-6" value="Starter Question" style="rounded=1;whiteSpace=wrap;html=1;fontFamily=Times New Roman;" vertex="1" parent="vERgBJj2h_cucBto-een-1">
          <mxGeometry x="-720" y="140" width="185" height="50" as="geometry" />
        </mxCell>
        <mxCell id="kkYN2aCDqP9aNP-pzhCv-7" value="Bonus Question 1" style="rounded=1;whiteSpace=wrap;html=1;fontFamily=Times New Roman;" vertex="1" parent="vERgBJj2h_cucBto-een-1">
          <mxGeometry x="-720" y="210" width="185" height="30" as="geometry" />
        </mxCell>
        <mxCell id="kkYN2aCDqP9aNP-pzhCv-8" value="Bonus Question 2" style="rounded=1;whiteSpace=wrap;html=1;fontFamily=Times New Roman;" vertex="1" parent="vERgBJj2h_cucBto-een-1">
          <mxGeometry x="-720" y="250" width="185" height="30" as="geometry" />
        </mxCell>
        <mxCell id="kkYN2aCDqP9aNP-pzhCv-9" value="Bonus Question 2" style="rounded=1;whiteSpace=wrap;html=1;fontFamily=Times New Roman;" vertex="1" parent="vERgBJj2h_cucBto-een-1">
          <mxGeometry x="-720" y="290" width="185" height="30" as="geometry" />
        </mxCell>
        <mxCell id="kkYN2aCDqP9aNP-pzhCv-10" value="" style="edgeStyle=orthogonalEdgeStyle;rounded=0;orthogonalLoop=1;jettySize=auto;html=1;fontFamily=Times New Roman;" edge="1" parent="vERgBJj2h_cucBto-een-1" source="kkYN2aCDqP9aNP-pzhCv-11">
          <mxGeometry relative="1" as="geometry">
            <mxPoint x="-245" y="490" as="targetPoint" />
          </mxGeometry>
        </mxCell>
        <mxCell id="kkYN2aCDqP9aNP-pzhCv-11" value="Send a signal to master view" style="rhombus;whiteSpace=wrap;html=1;" vertex="1" parent="vERgBJj2h_cucBto-een-1">
          <mxGeometry x="-451.25" y="450" width="132.5" height="80" as="geometry" />
        </mxCell>
        <mxCell id="kkYN2aCDqP9aNP-pzhCv-12" value="" style="rounded=0;whiteSpace=wrap;html=1;fontFamily=Times New Roman;" vertex="1" parent="vERgBJj2h_cucBto-een-1">
          <mxGeometry x="-150" y="60" width="420" height="280" as="geometry" />
        </mxCell>
        <mxCell id="kkYN2aCDqP9aNP-pzhCv-13" value="&lt;font face=&quot;Times New Roman&quot; size=&quot;1&quot;&gt;&lt;i style=&quot;font-size: 17px&quot;&gt;Hull Gang Christmas Quiz&lt;/i&gt;&lt;/font&gt;" style="text;html=1;strokeColor=none;fillColor=none;align=center;verticalAlign=middle;whiteSpace=wrap;rounded=0;fontFamily=Times New Roman;" vertex="1" parent="vERgBJj2h_cucBto-een-1">
          <mxGeometry x="-110" y="80" width="190" height="20" as="geometry" />
        </mxCell>
        <mxCell id="kkYN2aCDqP9aNP-pzhCv-14" value="University Challenge" style="text;html=1;strokeColor=none;fillColor=none;align=left;verticalAlign=middle;whiteSpace=wrap;rounded=0;fontFamily=Times New Roman;" vertex="1" parent="vERgBJj2h_cucBto-een-1">
          <mxGeometry x="-110" y="100" width="120" height="20" as="geometry" />
        </mxCell>
        <mxCell id="kkYN2aCDqP9aNP-pzhCv-15" value="" style="ellipse;whiteSpace=wrap;html=1;aspect=fixed;fontFamily=Times New Roman;" vertex="1" parent="vERgBJj2h_cucBto-een-1">
          <mxGeometry x="-125" y="130" width="30" height="30" as="geometry" />
        </mxCell>
        <mxCell id="kkYN2aCDqP9aNP-pzhCv-16" value="" style="ellipse;whiteSpace=wrap;html=1;aspect=fixed;fontFamily=Times New Roman;" vertex="1" parent="vERgBJj2h_cucBto-een-1">
          <mxGeometry x="-125" y="170" width="30" height="30" as="geometry" />
        </mxCell>
        <mxCell id="kkYN2aCDqP9aNP-pzhCv-17" value="" style="ellipse;whiteSpace=wrap;html=1;aspect=fixed;fontFamily=Times New Roman;" vertex="1" parent="vERgBJj2h_cucBto-een-1">
          <mxGeometry x="-125" y="210" width="30" height="30" as="geometry" />
        </mxCell>
        <mxCell id="kkYN2aCDqP9aNP-pzhCv-18" value="" style="ellipse;whiteSpace=wrap;html=1;aspect=fixed;fontFamily=Times New Roman;" vertex="1" parent="vERgBJj2h_cucBto-een-1">
          <mxGeometry x="-125" y="250" width="30" height="30" as="geometry" />
        </mxCell>
        <mxCell id="kkYN2aCDqP9aNP-pzhCv-19" value="" style="ellipse;whiteSpace=wrap;html=1;aspect=fixed;fontFamily=Times New Roman;" vertex="1" parent="vERgBJj2h_cucBto-een-1">
          <mxGeometry x="-125" y="290" width="30" height="30" as="geometry" />
        </mxCell>
        <mxCell id="kkYN2aCDqP9aNP-pzhCv-20" value="" style="edgeStyle=orthogonalEdgeStyle;rounded=0;orthogonalLoop=1;jettySize=auto;html=1;fontFamily=Times New Roman;entryX=0.5;entryY=0;entryDx=0;entryDy=0;" edge="1" parent="vERgBJj2h_cucBto-een-1" source="kkYN2aCDqP9aNP-pzhCv-23" target="kkYN2aCDqP9aNP-pzhCv-25">
          <mxGeometry relative="1" as="geometry">
            <Array as="points">
              <mxPoint x="-385" y="430" />
              <mxPoint x="-508" y="430" />
            </Array>
          </mxGeometry>
        </mxCell>
        <mxCell id="kkYN2aCDqP9aNP-pzhCv-21" value="" style="edgeStyle=orthogonalEdgeStyle;rounded=0;orthogonalLoop=1;jettySize=auto;html=1;fontFamily=Times New Roman;" edge="1" parent="vERgBJj2h_cucBto-een-1" source="kkYN2aCDqP9aNP-pzhCv-23" target="kkYN2aCDqP9aNP-pzhCv-24">
          <mxGeometry relative="1" as="geometry" />
        </mxCell>
        <mxCell id="kkYN2aCDqP9aNP-pzhCv-22" value="Yes" style="edgeLabel;html=1;align=center;verticalAlign=middle;resizable=0;points=[];fontFamily=Times New Roman;" vertex="1" connectable="0" parent="kkYN2aCDqP9aNP-pzhCv-21">
          <mxGeometry x="-0.3078" y="-1" relative="1" as="geometry">
            <mxPoint as="offset" />
          </mxGeometry>
        </mxCell>
        <mxCell id="kkYN2aCDqP9aNP-pzhCv-23" value="Has buzzer been pressed before" style="rounded=0;whiteSpace=wrap;html=1;fontFamily=Times New Roman;" vertex="1" parent="vERgBJj2h_cucBto-een-1">
          <mxGeometry x="-445" y="370" width="120" height="30" as="geometry" />
        </mxCell>
        <mxCell id="kkYN2aCDqP9aNP-pzhCv-24" value="Do nothing" style="whiteSpace=wrap;html=1;rounded=0;fontFamily=Times New Roman;" vertex="1" parent="vERgBJj2h_cucBto-een-1">
          <mxGeometry x="-600" y="362.5" width="75" height="45" as="geometry" />
        </mxCell>
        <mxCell id="kkYN2aCDqP9aNP-pzhCv-25" value="Freeze buzzer" style="whiteSpace=wrap;html=1;rounded=0;fontFamily=Times New Roman;" vertex="1" parent="vERgBJj2h_cucBto-een-1">
          <mxGeometry x="-545" y="470" width="75" height="40" as="geometry" />
        </mxCell>
        <mxCell id="kkYN2aCDqP9aNP-pzhCv-26" value="" style="endArrow=classic;html=1;fontFamily=Times New Roman;exitX=0.5;exitY=1;exitDx=0;exitDy=0;entryX=0.5;entryY=0;entryDx=0;entryDy=0;" edge="1" parent="vERgBJj2h_cucBto-een-1" source="kkYN2aCDqP9aNP-pzhCv-23" target="kkYN2aCDqP9aNP-pzhCv-11">
          <mxGeometry width="50" height="50" relative="1" as="geometry">
            <mxPoint x="-400" y="510" as="sourcePoint" />
            <mxPoint x="-350" y="460" as="targetPoint" />
          </mxGeometry>
        </mxCell>
        <mxCell id="kkYN2aCDqP9aNP-pzhCv-27" value="No" style="edgeLabel;html=1;align=center;verticalAlign=middle;resizable=0;points=[];fontFamily=Times New Roman;" vertex="1" connectable="0" parent="kkYN2aCDqP9aNP-pzhCv-26">
          <mxGeometry x="-0.3434" y="1" relative="1" as="geometry">
            <mxPoint as="offset" />
          </mxGeometry>
        </mxCell>
      </root>
    </mxGraphModel>
  </diagram>
</mxfile>
